<?xml version="1.0" encoding="UTF-8"?>
<svg id="Layer_2" data-name="Layer 2" xmlns="http://www.w3.org/2000/svg" viewBox="0 0 183.83 136.7">
  <g id="home">
    <g>
      <path d="M.99,0v66.49h16.62V16.62h16.62v49.87h16.62V16.62h16.62v49.87h16.62V16.62h16.62v49.87h16.62V16.62h16.62v49.87h16.62v-16.62h16.62v16.62h16.62V0H.99ZM167.21,33.24h-16.62v-16.62h16.62v16.62Z"/>
      <g>
        <path d="M.96,96.05v-12.94h3.75l2.83,11.61h.3l2.83-11.61h3.75v12.94h-1.94v-11.53h-.3l-2.81,11.53h-3.36l-2.81-11.53h-.3v11.53H.96Z"/>
        <path d="M19.81,96.3c-.65,0-1.24-.11-1.75-.33-.51-.22-.92-.55-1.22-.98-.3-.43-.45-.95-.45-1.57s.15-1.15.45-1.56c.3-.41.71-.72,1.24-.93.52-.21,1.12-.31,1.78-.31h2.77v-.59c0-.53-.16-.95-.48-1.27s-.81-.48-1.48-.48-1.15.15-1.5.46-.57.71-.68,1.2l-1.77-.57c.15-.49.39-.94.71-1.34.33-.4.76-.72,1.3-.97.54-.25,1.19-.37,1.96-.37,1.18,0,2.11.3,2.79.91.68.6,1.02,1.46,1.02,2.57v3.75c0,.37.17.55.52.55h.78v1.59h-1.42c-.43,0-.78-.11-1.05-.33-.27-.22-.41-.52-.41-.91v-.06h-.28c-.1.18-.25.4-.44.65-.2.25-.49.46-.87.64-.38.18-.89.27-1.52.27ZM20.09,94.73c.76,0,1.38-.22,1.85-.66.47-.44.7-1.04.7-1.8v-.18h-2.66c-.51,0-.91.11-1.22.32-.31.22-.46.53-.46.95s.16.75.48,1c.32.25.76.37,1.31.37Z"/>
        <path d="M30.71,96.21c-.69,0-1.31-.15-1.85-.46-.54-.31-.97-.75-1.28-1.31-.31-.57-.46-1.24-.46-2.03v-5.47h1.9v5.34c0,.79.2,1.37.59,1.75.39.38.94.56,1.64.56.78,0,1.4-.26,1.88-.79.47-.52.71-1.28.71-2.26v-4.6h1.9v9.11h-1.87v-1.37h-.3c-.17.37-.48.72-.92,1.04s-1.1.49-1.96.49Z"/>
        <path d="M38.39,96.05v-9.11h1.87v1.07h.3c.15-.38.39-.66.71-.84.33-.18.73-.27,1.21-.27h1.09v1.72h-1.16c-.62,0-1.12.17-1.52.51-.39.34-.59.86-.59,1.56v5.36h-1.9Z"/>
        <path d="M45.11,85.83l1.39-2.64h2.2l-1.87,2.64h-1.72ZM45.35,96.05v-9.11h1.9v9.11h-1.9Z"/>
        <path d="M54.13,96.3c-.88,0-1.67-.18-2.37-.55-.71-.37-1.27-.91-1.68-1.61-.41-.7-.62-1.55-.62-2.53v-.24c0-.99.21-1.83.62-2.52.41-.7.97-1.23,1.68-1.61.71-.38,1.5-.56,2.37-.56s1.62.16,2.24.48,1.11.75,1.49,1.27c.38.53.62,1.12.73,1.76l-1.85.39c-.06-.41-.19-.78-.39-1.11s-.47-.6-.83-.79c-.36-.2-.81-.3-1.35-.3s-1.01.12-1.43.36-.76.59-1.01,1.04c-.25.45-.37.99-.37,1.64v.17c0,.64.12,1.19.37,1.64.25.46.58.8,1.01,1.03.42.23.9.35,1.43.35.8,0,1.41-.21,1.83-.62s.68-.94.79-1.58l1.85.43c-.15.63-.41,1.21-.79,1.74-.38.53-.87.95-1.49,1.27-.62.31-1.36.47-2.24.47Z"/>
        <path d="M61.61,85.7c-.37,0-.68-.12-.93-.36-.25-.24-.38-.55-.38-.93s.13-.69.38-.93c.25-.24.56-.36.93-.36s.7.12.94.36.37.55.37.93-.12.69-.37.93-.56.36-.94.36ZM60.65,96.05v-9.11h1.9v9.11h-1.9Z"/>
        <path d="M69.47,96.3c-.91,0-1.72-.19-2.43-.56s-1.27-.91-1.67-1.62-.61-1.53-.61-2.49v-.28c0-.96.2-1.79.61-2.49.41-.7.96-1.23,1.67-1.62s1.52-.57,2.43-.57,1.72.19,2.44.57c.71.38,1.28.92,1.68,1.62.41.7.61,1.52.61,2.49v.28c0,.96-.2,1.79-.61,2.49-.41.7-.97,1.24-1.68,1.62-.72.38-1.53.56-2.44.56ZM69.47,94.6c.84,0,1.52-.27,2.04-.8.52-.54.79-1.28.79-2.23v-.17c0-.95-.26-1.69-.78-2.23s-1.2-.8-2.05-.8-1.5.27-2.02.8c-.52.54-.79,1.28-.79,2.23v.17c0,.95.26,1.69.79,2.23.52.54,1.2.8,2.02.8Z"/>
        <path d="M4.05,114.53v-11.13H.07v-1.81h9.94v1.81h-3.97v11.13h-2Z"/>
        <path d="M12.92,114.78c-.65,0-1.24-.11-1.75-.33-.51-.22-.92-.55-1.22-.98-.3-.43-.45-.95-.45-1.57s.15-1.15.45-1.56c.3-.41.71-.72,1.24-.93.52-.21,1.12-.31,1.78-.31h2.77v-.59c0-.53-.16-.95-.48-1.27s-.81-.48-1.48-.48-1.15.15-1.5.46-.57.71-.68,1.2l-1.77-.57c.15-.49.39-.94.71-1.34.33-.4.76-.72,1.3-.97.54-.25,1.19-.37,1.96-.37,1.18,0,2.11.3,2.79.91.68.6,1.02,1.46,1.02,2.57v3.75c0,.37.17.55.52.55h.78v1.59h-1.42c-.43,0-.78-.11-1.05-.33-.27-.22-.41-.52-.41-.91v-.06h-.28c-.1.18-.25.4-.44.65-.2.25-.49.46-.87.64-.38.18-.89.27-1.52.27ZM13.2,113.21c.76,0,1.38-.22,1.85-.66.47-.44.7-1.04.7-1.8v-.18h-2.66c-.51,0-.91.11-1.22.32-.31.22-.46.53-.46.95s.16.75.48,1c.32.25.76.37,1.31.37Z"/>
        <path d="M20.57,114.53v-9.11h1.87v1.07h.3c.17-.32.45-.6.83-.85.38-.25.9-.37,1.55-.37s1.22.14,1.64.42c.41.28.72.63.93,1.06h.3c.21-.42.51-.77.91-1.05.4-.28.97-.42,1.71-.42.59,0,1.11.12,1.57.36.45.24.82.6,1.09,1.07.27.47.41,1.06.41,1.76v6.06h-1.9v-5.91c0-.55-.15-.98-.45-1.28-.3-.3-.73-.45-1.28-.45-.59,0-1.07.19-1.42.57s-.54.93-.54,1.64v5.43h-1.9v-5.91c0-.55-.15-.98-.45-1.28-.3-.3-.73-.45-1.28-.45-.59,0-1.07.19-1.42.57-.36.38-.54.93-.54,1.64v5.43h-1.9Z"/>
        <path d="M40.4,114.78c-.92,0-1.73-.19-2.42-.58-.69-.39-1.23-.94-1.62-1.64-.39-.71-.58-1.53-.58-2.47v-.22c0-.95.19-1.78.57-2.49.38-.71.91-1.26,1.6-1.64.68-.39,1.47-.58,2.37-.58s1.64.19,2.3.58c.66.39,1.17.93,1.54,1.62.37.69.55,1.5.55,2.42v.72h-7c.02.8.29,1.44.8,1.91.51.47,1.15.71,1.91.71.71,0,1.25-.16,1.62-.48.36-.32.64-.69.84-1.11l1.57.81c-.17.35-.42.71-.75,1.09-.33.38-.75.7-1.28.96-.53.26-1.21.39-2.03.39ZM37.74,109.04h5.05c-.05-.69-.3-1.23-.74-1.62s-1.02-.58-1.74-.58-1.3.19-1.75.58c-.45.39-.72.93-.82,1.62Z"/>
        <path d="M46.83,114.53v-9.11h1.87v1.07h.3c.15-.38.39-.66.71-.84.33-.18.73-.27,1.21-.27h1.09v1.72h-1.16c-.62,0-1.12.17-1.52.51-.39.34-.59.86-.59,1.56v5.36h-1.9Z"/>
        <path d="M0,133.01l3.7-12.94h3.51l3.68,12.94h-2.05l-.85-3.05H2.92l-.85,3.05H0ZM3.42,128.11h4.07l-1.88-6.8h-.3l-1.88,6.8Z"/>
        <path d="M16.28,133.27c-.75,0-1.45-.18-2.09-.55s-1.16-.9-1.54-1.6c-.39-.7-.58-1.54-.58-2.52v-.28c0-.97.19-1.81.57-2.51.38-.7.89-1.24,1.53-1.61.64-.37,1.34-.55,2.11-.55.59,0,1.09.07,1.49.22.4.15.73.34.99.56.26.23.46.47.59.71h.3v-5.06h1.9v12.94h-1.87v-1.29h-.3c-.23.39-.59.75-1.06,1.07-.47.32-1.16.48-2.04.48ZM16.82,131.6c.82,0,1.51-.26,2.04-.79.54-.53.8-1.29.8-2.27v-.17c0-.97-.27-1.72-.79-2.25-.53-.53-1.21-.79-2.05-.79s-1.49.27-2.02.79c-.54.53-.8,1.28-.8,2.25v.17c0,.99.27,1.74.8,2.27s1.21.79,2.02.79Z"/>
        <path d="M26.28,133.01l-3.07-9.11h2.01l2.42,7.71h.3l2.42-7.71h2.01l-3.07,9.11h-3.03Z"/>
        <path d="M38,133.27c-.91,0-1.72-.19-2.43-.56s-1.27-.91-1.67-1.62-.61-1.53-.61-2.49v-.28c0-.96.2-1.79.61-2.49.41-.7.96-1.23,1.67-1.62s1.52-.57,2.43-.57,1.72.19,2.44.57c.71.38,1.28.92,1.68,1.62.41.7.61,1.52.61,2.49v.28c0,.96-.2,1.79-.61,2.49-.41.7-.97,1.24-1.68,1.62-.72.38-1.53.56-2.44.56ZM38,131.57c.84,0,1.52-.27,2.04-.8.52-.54.79-1.28.79-2.23v-.17c0-.95-.26-1.69-.78-2.23s-1.2-.8-2.05-.8-1.5.27-2.02.8c-.52.54-.79,1.28-.79,2.23v.17c0,.95.26,1.69.79,2.23.52.54,1.2.8,2.02.8Z"/>
        <path d="M44.46,128.5v-.28c0-.96.19-1.78.58-2.46.39-.68.9-1.2,1.54-1.57.64-.37,1.34-.55,2.11-.55.89,0,1.57.17,2.04.5.47.33.82.69,1.04,1.07h.3v-1.31h1.85v10.98c0,.55-.16,1-.49,1.33-.33.33-.77.5-1.34.5h-6.14v-1.66h5.54c.36,0,.54-.18.54-.55v-2.9h-.3c-.14.22-.33.45-.57.68-.25.23-.57.42-.97.57-.4.15-.9.22-1.51.22-.76,0-1.47-.18-2.12-.55-.65-.36-1.16-.89-1.54-1.57-.38-.68-.57-1.5-.57-2.45ZM49.21,131.4c.82,0,1.51-.26,2.04-.79.54-.52.8-1.25.8-2.17v-.17c0-.95-.27-1.68-.79-2.19-.53-.51-1.21-.77-2.05-.77s-1.49.26-2.02.77-.8,1.24-.8,2.19v.17c0,.92.27,1.65.8,2.17s1.21.79,2.02.79Z"/>
        <path d="M59.38,133.27c-.65,0-1.24-.11-1.75-.33-.51-.22-.92-.55-1.22-.98-.3-.43-.45-.95-.45-1.57s.15-1.15.45-1.56c.3-.41.71-.72,1.24-.93.52-.21,1.12-.31,1.78-.31h2.77v-.59c0-.53-.16-.95-.48-1.27s-.81-.48-1.48-.48-1.15.15-1.5.46-.57.71-.68,1.2l-1.77-.57c.15-.49.39-.94.71-1.34.33-.4.76-.72,1.3-.97.54-.25,1.19-.37,1.96-.37,1.18,0,2.11.3,2.79.91.68.6,1.02,1.46,1.02,2.57v3.75c0,.37.17.55.52.55h.78v1.59h-1.42c-.43,0-.78-.11-1.05-.33-.27-.22-.41-.52-.41-.91v-.06h-.28c-.1.18-.25.4-.44.65-.2.25-.49.46-.87.64-.38.18-.89.27-1.52.27ZM59.66,131.69c.76,0,1.38-.22,1.85-.66.47-.44.7-1.04.7-1.8v-.18h-2.66c-.51,0-.91.11-1.22.32-.31.22-.46.53-.46.95s.16.75.48,1c.32.25.76.37,1.31.37Z"/>
        <path d="M70.58,133.27c-.75,0-1.45-.18-2.09-.55s-1.16-.9-1.54-1.6c-.39-.7-.58-1.54-.58-2.52v-.28c0-.97.19-1.81.57-2.51.38-.7.89-1.24,1.53-1.61.64-.37,1.34-.55,2.11-.55.59,0,1.09.07,1.49.22.4.15.73.34.99.56.26.23.46.47.59.71h.3v-5.06h1.9v12.94h-1.87v-1.29h-.3c-.23.39-.59.75-1.06,1.07-.47.32-1.16.48-2.04.48ZM71.11,131.6c.82,0,1.51-.26,2.04-.79.54-.53.8-1.29.8-2.27v-.17c0-.97-.27-1.72-.79-2.25-.53-.53-1.21-.79-2.05-.79s-1.49.27-2.02.79c-.54.53-.8,1.28-.8,2.25v.17c0,.99.27,1.74.8,2.27s1.21.79,2.02.79Z"/>
        <path d="M82.74,133.27c-.91,0-1.72-.19-2.43-.56s-1.27-.91-1.67-1.62-.61-1.53-.61-2.49v-.28c0-.96.2-1.79.61-2.49.41-.7.96-1.23,1.67-1.62s1.52-.57,2.43-.57,1.72.19,2.44.57c.71.38,1.28.92,1.68,1.62.41.7.61,1.52.61,2.49v.28c0,.96-.2,1.79-.61,2.49-.41.7-.97,1.24-1.68,1.62-.72.38-1.53.56-2.44.56ZM82.74,131.57c.84,0,1.52-.27,2.04-.8.52-.54.79-1.28.79-2.23v-.17c0-.95-.26-1.69-.78-2.23s-1.2-.8-2.05-.8-1.5.27-2.02.8c-.52.54-.79,1.28-.79,2.23v.17c0,.95.26,1.69.79,2.23.52.54,1.2.8,2.02.8Z"/>
        <path d="M93.38,133.27c-1.16,0-2.12-.26-2.88-.78-.76-.52-1.23-1.3-1.4-2.35l1.77-.42c.1.51.26.91.5,1.2.23.3.53.51.88.63.35.12.73.18,1.14.18.6,0,1.07-.12,1.4-.35.33-.23.49-.54.49-.91s-.15-.64-.46-.81c-.31-.17-.76-.31-1.37-.42l-.63-.11c-.62-.11-1.18-.27-1.68-.48-.51-.21-.91-.5-1.2-.87-.3-.37-.44-.84-.44-1.42,0-.86.32-1.53.96-2.01.64-.47,1.49-.71,2.55-.71s1.86.23,2.52.69c.66.46,1.09,1.09,1.28,1.88l-1.77.5c-.11-.55-.34-.95-.7-1.17-.36-.23-.8-.34-1.33-.34s-.92.1-1.22.29-.44.46-.44.8c0,.37.15.64.43.81.29.17.68.3,1.17.39l.65.11c.65.11,1.25.27,1.79.46.54.2.97.48,1.28.85.31.37.47.86.47,1.48,0,.91-.34,1.62-1.02,2.13s-1.59.76-2.73.76Z"/>
      </g>
    </g>
  </g>
</svg>