<?xml version="1.0" encoding="UTF-8"?>
<svg id="Layer_2" data-name="Layer 2" xmlns="http://www.w3.org/2000/svg" viewBox="0 0 126.09 69.77">
  <g id="home">
    <g>
      <path d="M1.18,16.97V.17h5.4l3.26,14.86h.41L13.54.17h5.38v16.8h-2.78V2.26h-.41l-3.26,14.71h-4.8L4.39,2.26h-.41v14.71H1.18Z"/>
      <path d="M25.78,17.3c-.83,0-1.58-.15-2.26-.44s-1.2-.72-1.6-1.28c-.39-.56-.59-1.25-.59-2.06s.2-1.47.59-2.02c.39-.54.93-.96,1.62-1.24.69-.28,1.47-.42,2.35-.42h3.43v-.72c0-.62-.19-1.13-.58-1.52-.38-.39-.98-.59-1.8-.59s-1.4.19-1.81.56-.68.86-.8,1.45l-2.54-.84c.19-.62.5-1.19.92-1.7.42-.51.99-.92,1.69-1.24s1.57-.47,2.59-.47c1.55,0,2.77.39,3.66,1.16.89.78,1.33,1.9,1.33,3.37v4.66c0,.48.22.72.67.72h1.01v2.28h-1.94c-.58,0-1.05-.14-1.42-.43s-.55-.68-.55-1.18v-.05h-.41c-.1.22-.26.5-.5.82-.24.32-.6.6-1.09.83-.49.23-1.15.35-1.98.35ZM26.23,15.05c.91,0,1.66-.26,2.23-.78.58-.52.86-1.22.86-2.1v-.24h-3.26c-.59,0-1.07.13-1.44.38-.37.26-.55.63-.55,1.13s.19.87.58,1.16.91.44,1.58.44Z"/>
      <path d="M39.91,17.16c-.91,0-1.72-.2-2.42-.61-.7-.41-1.25-.98-1.63-1.73-.38-.74-.58-1.61-.58-2.6v-7.1h2.74v6.89c0,.96.24,1.67.71,2.14.47.46,1.14.7,2,.7.98,0,1.75-.32,2.32-.96.57-.64.85-1.56.85-2.76v-6h2.74v11.86h-2.69v-1.66h-.41c-.21.43-.59.85-1.14,1.25-.55.4-1.38.6-2.48.6Z"/>
      <path d="M49.9,16.97V5.11h2.71v1.37h.41c.18-.5.47-.86.89-1.08s.91-.34,1.49-.34h1.44v2.45h-1.49c-.8,0-1.45.21-1.94.64s-.74,1.08-.74,1.96v6.86h-2.76Z"/>
      <path d="M58.73,3.7l1.8-3.48h3.14l-2.5,3.48h-2.45ZM59.04,16.97V5.11h2.76v11.86h-2.76Z"/>
      <path d="M70.61,17.3c-1.15,0-2.19-.24-3.12-.72s-1.66-1.18-2.2-2.09c-.54-.91-.8-2.01-.8-3.29v-.34c0-1.28.27-2.38.8-3.29.54-.91,1.27-1.61,2.2-2.09s1.97-.72,3.12-.72,2.11.2,2.92.6,1.46.95,1.96,1.64c.5.7.82,1.48.96,2.34l-2.66.55c-.06-.5-.22-.95-.46-1.36-.24-.41-.58-.73-1.02-.97-.44-.24-.98-.36-1.62-.36s-1.24.14-1.76.42c-.52.28-.93.7-1.22,1.26s-.44,1.23-.44,2.02v.24c0,.78.15,1.45.44,2,.3.55.7.97,1.22,1.26.52.29,1.11.43,1.76.43.98,0,1.72-.25,2.22-.76.5-.5.82-1.16.95-1.96l2.66.62c-.19.83-.54,1.59-1.03,2.28s-1.15,1.24-1.96,1.64c-.81.41-1.78.61-2.92.61Z"/>
      <path d="M80.33,3.6c-.5,0-.92-.16-1.28-.49s-.54-.76-.54-1.31.18-.98.54-1.31c.36-.33.79-.49,1.28-.49.53,0,.96.16,1.31.49.34.33.52.76.52,1.31s-.17.98-.52,1.31-.78.49-1.31.49ZM78.96,16.97V5.11h2.76v11.86h-2.76Z"/>
      <path d="M90.6,17.3c-1.18,0-2.24-.24-3.18-.73-.94-.49-1.67-1.18-2.21-2.09-.54-.9-.8-1.99-.8-3.25v-.38c0-1.26.27-2.35.8-3.26.54-.91,1.27-1.61,2.21-2.09.94-.48,2-.72,3.18-.72s2.24.24,3.17.72c.93.48,1.66,1.18,2.2,2.09.54.91.8,2,.8,3.26v.38c0,1.26-.27,2.35-.8,3.25-.54.9-1.27,1.6-2.2,2.09-.93.49-1.98.73-3.17.73ZM90.6,14.86c1.01,0,1.83-.32,2.47-.97s.96-1.56.96-2.72v-.24c0-1.17-.32-2.08-.96-2.72s-1.46-.97-2.47-.97-1.83.32-2.47.97c-.64.65-.96,1.56-.96,2.72v.24c0,1.17.32,2.08.96,2.72.64.65,1.46.97,2.47.97Z"/>
      <path d="M5.14,40.97v-14.18H.12v-2.62h12.91v2.62h-5.02v14.18h-2.88Z"/>
      <path d="M16.75,41.3c-.83,0-1.58-.15-2.26-.44s-1.2-.72-1.6-1.28c-.39-.56-.59-1.25-.59-2.06s.2-1.47.59-2.02c.39-.54.93-.96,1.62-1.24.69-.28,1.47-.42,2.35-.42h3.43v-.72c0-.62-.19-1.13-.58-1.52-.38-.39-.98-.59-1.8-.59s-1.4.19-1.81.56-.68.86-.8,1.45l-2.54-.84c.19-.62.5-1.19.92-1.7.42-.51.99-.92,1.69-1.24s1.57-.47,2.59-.47c1.55,0,2.77.39,3.66,1.16.89.78,1.33,1.9,1.33,3.37v4.66c0,.48.22.72.67.72h1.01v2.28h-1.94c-.58,0-1.05-.14-1.42-.43s-.55-.68-.55-1.18v-.05h-.41c-.1.22-.26.5-.5.82-.24.32-.6.6-1.09.83-.49.23-1.15.35-1.98.35ZM17.21,39.05c.91,0,1.66-.26,2.23-.78.58-.52.86-1.22.86-2.1v-.24h-3.26c-.59,0-1.07.13-1.44.38-.37.26-.55.63-.55,1.13s.19.87.58,1.16.91.44,1.58.44Z"/>
      <path d="M26.69,40.97v-11.86h2.71v1.32h.41c.21-.4.56-.76,1.04-1.07s1.14-.47,1.96-.47c.86,0,1.56.18,2.09.53.53.35.93.8,1.2,1.34h.38c.27-.54.66-.99,1.18-1.34.51-.35,1.24-.53,2.18-.53.74,0,1.4.16,2,.48.6.32,1.08.79,1.44,1.42.36.62.54,1.4.54,2.33v7.85h-2.76v-7.66c0-.69-.18-1.21-.55-1.57s-.88-.54-1.54-.54c-.72,0-1.29.24-1.72.71-.42.47-.64,1.15-.64,2.03v7.03h-2.74v-7.66c0-.69-.18-1.21-.55-1.57-.37-.36-.88-.54-1.54-.54-.74,0-1.31.24-1.73.71-.42.47-.62,1.15-.62,2.03v7.03h-2.76Z"/>
      <path d="M52.39,41.3c-1.18,0-2.23-.25-3.13-.76-.9-.5-1.61-1.22-2.11-2.14-.5-.92-.76-2-.76-3.23v-.29c0-1.25.25-2.33.74-3.24s1.19-1.62,2.09-2.12,1.93-.76,3.1-.76,2.16.25,3.02.76,1.54,1.21,2.02,2.12c.48.91.72,1.98.72,3.19v.98h-8.9c.03.93.36,1.67.98,2.23s1.39.84,2.3.84,1.56-.2,1.99-.59c.43-.39.76-.84.98-1.33l2.28,1.18c-.22.43-.55.89-.97,1.38-.42.49-.99.9-1.69,1.25-.7.34-1.59.52-2.66.52ZM49.2,33.74h6.07c-.06-.78-.36-1.41-.9-1.87-.54-.46-1.23-.7-2.08-.7s-1.58.23-2.11.7c-.53.46-.86,1.09-.98,1.87Z"/>
      <path d="M60.67,40.97v-11.86h2.71v1.37h.41c.18-.5.47-.86.89-1.08s.91-.34,1.49-.34h1.44v2.45h-1.49c-.8,0-1.45.21-1.94.64s-.74,1.08-.74,1.96v6.86h-2.76Z"/>
      <path d="M0,64.97l4.61-16.8h5.02l4.61,16.8h-2.98l-1.01-3.84H3.98l-1.01,3.84H0ZM4.66,58.49h4.92l-2.26-8.52h-.41l-2.26,8.52Z"/>
      <path d="M21.07,65.3c-.96,0-1.86-.24-2.69-.71s-1.5-1.16-1.99-2.08c-.5-.91-.74-2.01-.74-3.29v-.38c0-1.28.25-2.38.74-3.29.5-.91,1.16-1.6,1.98-2.08.82-.47,1.72-.71,2.7-.71.74,0,1.36.09,1.87.26.51.18.92.4,1.24.67s.56.57.73.89h.41v-6.43h2.74v16.8h-2.69v-1.56h-.41c-.29.48-.73.92-1.32,1.31-.59.39-1.45.59-2.57.59ZM21.89,62.9c.99,0,1.82-.32,2.47-.97s.98-1.57.98-2.77v-.24c0-1.22-.32-2.14-.97-2.78-.65-.64-1.48-.96-2.48-.96s-1.82.32-2.48.96c-.66.64-1,1.57-1,2.78v.24c0,1.2.33,2.12,1,2.77s1.49.97,2.48.97Z"/>
      <path d="M33.93,64.97l-3.89-11.86h2.93l2.93,9.84h.41l2.95-9.84h2.93l-3.89,11.86h-4.37Z"/>
      <path d="M49.42,65.3c-1.18,0-2.24-.24-3.18-.73-.94-.49-1.67-1.18-2.21-2.09-.54-.9-.8-1.99-.8-3.25v-.38c0-1.26.27-2.35.8-3.26.54-.91,1.27-1.61,2.21-2.09.94-.48,2-.72,3.18-.72s2.24.24,3.17.72c.93.48,1.66,1.18,2.2,2.09.54.91.8,2,.8,3.26v.38c0,1.26-.27,2.35-.8,3.25-.54.9-1.27,1.6-2.2,2.09-.93.49-1.98.73-3.17.73ZM49.42,62.86c1.01,0,1.83-.32,2.47-.97s.96-1.56.96-2.72v-.24c0-1.17-.32-2.08-.96-2.72s-1.46-.97-2.47-.97-1.83.32-2.47.97c-.64.65-.96,1.56-.96,2.72v.24c0,1.17.32,2.08.96,2.72.64.65,1.46.97,2.47.97Z"/>
      <path d="M57.69,59.09v-.36c0-1.25.25-2.32.74-3.2.5-.89,1.16-1.57,1.99-2.04.83-.47,1.74-.71,2.74-.71,1.12,0,1.97.2,2.56.6s1.01.83,1.28,1.3h.41v-1.56h2.69v14.11c0,.78-.22,1.4-.67,1.86-.45.46-1.06.68-1.82.68h-7.97v-2.4h7.03c.46,0,.7-.24.7-.72v-3.43h-.41c-.18.27-.42.55-.72.83s-.7.52-1.2.71c-.5.19-1.12.29-1.87.29-.99,0-1.9-.24-2.74-.71-.83-.47-1.5-1.15-1.99-2.04-.5-.89-.74-1.96-.74-3.2ZM63.93,62.62c.99,0,1.82-.32,2.47-.95s.98-1.52.98-2.65v-.24c0-1.15-.32-2.04-.97-2.66-.65-.62-1.48-.94-2.48-.94s-1.82.31-2.48.94-1,1.51-1,2.66v.24c0,1.14.33,2.02,1,2.65s1.49.95,2.48.95Z"/>
      <path d="M77.04,65.3c-.83,0-1.58-.15-2.26-.44s-1.2-.72-1.6-1.28c-.39-.56-.59-1.25-.59-2.06s.2-1.47.59-2.02c.39-.54.93-.96,1.62-1.24.69-.28,1.47-.42,2.35-.42h3.43v-.72c0-.62-.19-1.13-.58-1.52-.38-.39-.98-.59-1.8-.59s-1.4.19-1.81.56-.68.86-.8,1.45l-2.54-.84c.19-.62.5-1.19.92-1.7.42-.51.99-.92,1.69-1.24s1.57-.47,2.59-.47c1.55,0,2.77.39,3.66,1.16.89.78,1.33,1.9,1.33,3.37v4.66c0,.48.22.72.67.72h1.01v2.28h-1.94c-.58,0-1.05-.14-1.42-.43s-.55-.68-.55-1.18v-.05h-.41c-.1.22-.26.5-.5.82-.24.32-.6.6-1.09.83-.49.23-1.15.35-1.98.35ZM77.49,63.05c.91,0,1.66-.26,2.23-.78.58-.52.86-1.22.86-2.1v-.24h-3.26c-.59,0-1.07.13-1.44.38-.37.26-.55.63-.55,1.13s.19.87.58,1.16.91.44,1.58.44Z"/>
      <path d="M91.56,65.3c-.96,0-1.86-.24-2.69-.71s-1.5-1.16-1.99-2.08c-.5-.91-.74-2.01-.74-3.29v-.38c0-1.28.25-2.38.74-3.29.5-.91,1.16-1.6,1.98-2.08.82-.47,1.72-.71,2.7-.71.74,0,1.36.09,1.87.26.51.18.92.4,1.24.67s.56.57.73.89h.41v-6.43h2.74v16.8h-2.69v-1.56h-.41c-.29.48-.73.92-1.32,1.31-.59.39-1.45.59-2.57.59ZM92.37,62.9c.99,0,1.82-.32,2.47-.97s.98-1.57.98-2.77v-.24c0-1.22-.32-2.14-.97-2.78-.65-.64-1.48-.96-2.48-.96s-1.82.32-2.48.96c-.66.64-1,1.57-1,2.78v.24c0,1.2.33,2.12,1,2.77s1.49.97,2.48.97Z"/>
      <path d="M107.42,65.3c-1.18,0-2.24-.24-3.18-.73-.94-.49-1.67-1.18-2.21-2.09-.54-.9-.8-1.99-.8-3.25v-.38c0-1.26.27-2.35.8-3.26.54-.91,1.27-1.61,2.21-2.09.94-.48,2-.72,3.18-.72s2.24.24,3.17.72c.93.48,1.66,1.18,2.2,2.09.54.91.8,2,.8,3.26v.38c0,1.26-.27,2.35-.8,3.25-.54.9-1.27,1.6-2.2,2.09-.93.49-1.98.73-3.17.73ZM107.42,62.86c1.01,0,1.83-.32,2.47-.97s.96-1.56.96-2.72v-.24c0-1.17-.32-2.08-.96-2.72s-1.46-.97-2.47-.97-1.83.32-2.47.97c-.64.65-.96,1.56-.96,2.72v.24c0,1.17.32,2.08.96,2.72.64.65,1.46.97,2.47.97Z"/>
      <path d="M121.17,65.3c-1.54,0-2.8-.34-3.79-1.01-.99-.67-1.59-1.66-1.8-2.95l2.54-.65c.11.61.31,1.09.6,1.44.29.35.64.6,1.07.74s.88.22,1.38.22c.75,0,1.32-.14,1.69-.41s.56-.62.56-1.03-.18-.75-.54-.96c-.36-.21-.91-.38-1.64-.53l-.74-.12c-.82-.16-1.56-.38-2.23-.66-.67-.28-1.21-.66-1.62-1.15-.41-.49-.61-1.11-.61-1.86,0-1.15.43-2.04,1.28-2.66.86-.62,1.98-.94,3.37-.94s2.42.3,3.29.89c.86.59,1.42,1.38,1.68,2.38l-2.54.77c-.13-.67-.41-1.15-.84-1.43s-.96-.42-1.58-.42-1.13.11-1.48.34c-.34.22-.52.54-.52.96s.18.73.53.94c.35.21.82.36,1.42.46l.74.14c.88.16,1.68.37,2.39.62s1.28.62,1.69,1.1c.42.48.62,1.13.62,1.94,0,1.23-.44,2.18-1.33,2.84-.89.66-2.08,1-3.59,1Z"/>
    </g>
  </g>
</svg>