<svg width="131" height="72" viewBox="0 0 131 72" fill="none" xmlns="http://www.w3.org/2000/svg">
<g clip-path="url(#clip0_270_29)">
<path d="M1.21777 17.5123V0.175293H6.79037L10.1546 15.5103H10.5777L13.9728 0.175293H19.5248V17.5123H16.6559V2.33209H16.2328L12.8686 17.5123H7.91521L4.53037 2.33209H4.10727V17.5123H1.21777Z" fill="black"/>
<path d="M26.604 17.8528C25.7474 17.8528 24.9735 17.6981 24.2717 17.3988C23.57 17.0995 23.0334 16.6558 22.6206 16.0779C22.2181 15.5 22.0117 14.7879 22.0117 13.952C22.0117 13.1161 22.2181 12.435 22.6206 11.8675C23.023 11.3102 23.5803 10.8768 24.2924 10.5878C25.0044 10.2989 25.8093 10.1544 26.7175 10.1544H30.2571V9.4114C30.2571 8.77158 30.061 8.24528 29.6586 7.84282C29.2664 7.44035 28.6472 7.23396 27.801 7.23396C26.9548 7.23396 26.3563 7.43003 25.9332 7.81186C25.5101 8.19368 25.2314 8.69935 25.1076 9.3082L22.4864 8.44135C22.6825 7.80154 23.0024 7.21332 23.4358 6.68702C23.8692 6.16072 24.4575 5.73761 25.1798 5.40739C25.9022 5.07716 26.8 4.92236 27.8526 4.92236C29.4522 4.92236 30.7112 5.32483 31.6296 6.11944C32.5481 6.92437 33.0021 8.08017 33.0021 9.59715V14.4061C33.0021 14.9014 33.2292 15.1491 33.6935 15.1491H34.7358V17.502H32.7338C32.1353 17.502 31.6502 17.3575 31.2684 17.0582C30.8866 16.759 30.7008 16.3565 30.7008 15.8405V15.7889H30.2777C30.1745 16.016 30.0094 16.3049 29.7618 16.6351C29.5141 16.9654 29.1426 17.2543 28.6369 17.4917C28.1313 17.729 27.4502 17.8528 26.5936 17.8528H26.604ZM27.0683 15.5309C28.0074 15.5309 28.7814 15.2626 29.3696 14.726C29.9681 14.1894 30.2571 13.467 30.2571 12.5589V12.3112H26.8929C26.284 12.3112 25.7887 12.4454 25.4069 12.7034C25.025 12.9717 24.8393 13.3535 24.8393 13.8695C24.8393 14.3855 25.0354 14.7673 25.4378 15.0666C25.8403 15.3658 26.3769 15.5206 27.0683 15.5206V15.5309Z" fill="black"/>
<path d="M41.1852 17.7085C40.2461 17.7085 39.4102 17.5021 38.6879 17.079C37.9655 16.6559 37.3979 16.0677 37.0058 15.2937C36.6136 14.5301 36.4072 13.6323 36.4072 12.6106V5.28369H39.2348V12.3939C39.2348 13.3846 39.4825 14.1173 39.9675 14.6023C40.4525 15.077 41.1439 15.3247 42.0314 15.3247C43.0427 15.3247 43.8374 14.9945 44.4256 14.334C45.0138 13.6735 45.3027 12.7241 45.3027 11.4858V5.29401H48.1303V17.5331H45.3543V15.82H44.9312C44.7145 16.2638 44.3224 16.6972 43.7548 17.11C43.1872 17.5228 42.3307 17.7292 41.1955 17.7292L41.1852 17.7085Z" fill="black"/>
<path d="M51.4951 17.5123V5.27328H54.2917V6.68707H54.7148C54.9006 6.17108 55.1999 5.79958 55.6333 5.57255C56.0667 5.34552 56.5724 5.22168 57.1709 5.22168H58.6569V7.74999H57.1193C56.2937 7.74999 55.623 7.9667 55.1173 8.41044C54.6116 8.85419 54.3536 9.52496 54.3536 10.4331V17.5123H51.5054H51.4951Z" fill="black"/>
<path d="M60.607 3.81828L62.4645 0.227051H65.7049L63.125 3.81828H60.5967H60.607ZM60.9269 17.5124V5.27335H63.7751V17.5124H60.9269Z" fill="black"/>
<path d="M72.8664 17.8529C71.6796 17.8529 70.6064 17.6052 69.6467 17.1099C68.6869 16.6146 67.9336 15.8922 67.3764 14.9531C66.8191 14.014 66.5508 12.8789 66.5508 11.5579V11.2071C66.5508 9.88617 66.8294 8.75101 67.3764 7.81192C67.9336 6.87284 68.6869 6.15046 69.6467 5.65512C70.6064 5.15978 71.6796 4.91211 72.8664 4.91211C74.0531 4.91211 75.0438 5.1185 75.8797 5.53129C76.7156 5.94407 77.3864 6.51165 77.9024 7.2237C78.4183 7.94608 78.7486 8.75101 78.893 9.6385L76.148 10.2061C76.0861 9.69009 75.921 9.22571 75.6733 8.80261C75.4257 8.3795 75.0748 8.04927 74.6207 7.8016C74.1667 7.55393 73.6094 7.4301 72.949 7.4301C72.2885 7.4301 71.6693 7.57457 71.1327 7.86352C70.5961 8.15247 70.173 8.5859 69.8737 9.16379C69.5744 9.74169 69.4196 10.4331 69.4196 11.2484V11.496C69.4196 12.301 69.5744 12.9924 69.8737 13.56C70.1833 14.1275 70.5961 14.561 71.1327 14.8602C71.6693 15.1595 72.2782 15.304 72.949 15.304C73.9603 15.304 74.7239 15.046 75.2399 14.5197C75.7559 14.0037 76.0861 13.3226 76.2203 12.497L78.9653 13.1368C78.7692 13.9934 78.408 14.7777 77.9024 15.4897C77.3967 16.2018 76.7156 16.7694 75.8797 17.1821C75.0438 17.6052 74.0428 17.8116 72.8664 17.8116V17.8529Z" fill="black"/>
<path d="M82.8977 3.71506C82.3817 3.71506 81.9483 3.54995 81.5768 3.2094C81.2053 2.86885 81.0195 2.42511 81.0195 1.85753C81.0195 1.28995 81.2053 0.846209 81.5768 0.505661C81.9483 0.165114 82.392 0 82.8977 0C83.4446 0 83.8884 0.165114 84.2496 0.505661C84.6004 0.846209 84.7862 1.28995 84.7862 1.85753C84.7862 2.42511 84.6108 2.86885 84.2496 3.2094C83.8884 3.54995 83.4446 3.71506 82.8977 3.71506ZM81.4839 17.5124V5.27333H84.3321V17.5124H81.4839Z" fill="black"/>
<path d="M93.4962 17.8528C92.2785 17.8528 91.1846 17.6051 90.2146 17.0995C89.2446 16.5938 88.4912 15.8817 87.934 14.9426C87.3767 14.0139 87.1084 12.889 87.1084 11.5888V11.1966C87.1084 9.89636 87.387 8.77152 87.934 7.83243C88.4912 6.89335 89.2446 6.17097 90.2146 5.67563C91.1846 5.18029 92.2785 4.93262 93.4962 4.93262C94.714 4.93262 95.8078 5.18029 96.7676 5.67563C97.7273 6.17097 98.4806 6.89335 99.0379 7.83243C99.5951 8.77152 99.8634 9.89636 99.8634 11.1966V11.5888C99.8634 12.889 99.5848 14.0139 99.0379 14.9426C98.4806 15.8714 97.7273 16.5938 96.7676 17.0995C95.8078 17.6051 94.7243 17.8528 93.4962 17.8528ZM93.4962 15.3348C94.5385 15.3348 95.3847 15.0046 96.0452 14.3338C96.7056 13.663 97.0359 12.7239 97.0359 11.5269V11.2792C97.0359 10.0718 96.7056 9.1327 96.0452 8.47225C95.3847 7.81179 94.5385 7.47124 93.4962 7.47124C92.454 7.47124 91.6077 7.80147 90.9473 8.47225C90.2868 9.14302 89.9566 10.0821 89.9566 11.2792V11.5269C89.9566 12.7343 90.2868 13.6733 90.9473 14.3338C91.6077 15.0046 92.454 15.3348 93.4962 15.3348Z" fill="black"/>
<path d="M5.30447 42.2793V27.6461H0.124023V24.9424H13.4467V27.6461H8.26621V42.2793H5.29415H5.30447Z" fill="black"/>
<path d="M17.2856 42.6199C16.4291 42.6199 15.6551 42.4651 14.9534 42.1659C14.2516 41.8666 13.715 41.4229 13.3022 40.845C12.8998 40.2671 12.6934 39.555 12.6934 38.7191C12.6934 37.8832 12.8998 37.2021 13.3022 36.6346C13.7047 36.0773 14.2619 35.6439 14.974 35.3549C15.686 35.066 16.491 34.9215 17.3991 34.9215H20.9387V34.1785C20.9387 33.5387 20.7427 33.0124 20.3402 32.6099C19.9481 32.2074 19.3289 32.001 18.4827 32.001C17.6365 32.001 17.0379 32.1971 16.6148 32.5789C16.1917 32.9608 15.9131 33.4664 15.7892 34.0753L13.1681 33.2084C13.3641 32.5686 13.684 31.9804 14.1175 31.4541C14.5509 30.9278 15.1391 30.5047 15.8615 30.1745C16.5839 29.8442 17.4817 29.6895 18.5343 29.6895C20.1338 29.6895 21.3928 30.0919 22.3112 30.8865C23.2297 31.6915 23.6838 32.8473 23.6838 34.3642V39.1732C23.6838 39.6685 23.9108 39.9162 24.3752 39.9162H25.4175V42.2691H23.4154C22.8169 42.2691 22.3319 42.1246 21.9501 41.8253C21.5682 41.5261 21.3825 41.1236 21.3825 40.6076V40.556H20.9594C20.8562 40.783 20.6911 41.072 20.4434 41.4022C20.1957 41.7324 19.8242 42.0214 19.3186 42.2588C18.8129 42.4961 18.1318 42.6199 17.2753 42.6199H17.2856ZM17.7603 40.298C18.6994 40.298 19.4734 40.0297 20.0616 39.4931C20.6601 38.9565 20.9491 38.2341 20.9491 37.326V37.0783H17.5849C16.976 37.0783 16.4807 37.2125 16.0988 37.4704C15.717 37.7388 15.5313 38.1206 15.5313 38.6366C15.5313 39.1525 15.7273 39.5344 16.1298 39.8336C16.5323 40.1329 17.0689 40.2877 17.7603 40.2877V40.298Z" fill="black"/>
<path d="M27.5431 42.2796V30.0405H30.3397V31.4027H30.7628C30.9795 30.9899 31.3407 30.6184 31.8361 30.2985C32.3314 29.9786 33.0125 29.8135 33.8587 29.8135C34.7462 29.8135 35.4686 29.9992 36.0155 30.3604C36.5625 30.7216 36.9752 31.186 37.2539 31.7432H37.646C37.9246 31.186 38.3271 30.7216 38.8637 30.3604C39.39 29.9992 40.1434 29.8135 41.1134 29.8135C41.8771 29.8135 42.5582 29.9786 43.1773 30.3088C43.7965 30.639 44.2918 31.1241 44.6634 31.7742C45.0349 32.414 45.2206 33.219 45.2206 34.1787V42.2796H42.3724V34.3748C42.3724 33.6627 42.1866 33.1261 41.8048 32.7546C41.423 32.3831 40.8967 32.1973 40.2156 32.1973C39.4726 32.1973 38.8844 32.445 38.4406 32.93C38.0072 33.415 37.7802 34.1168 37.7802 35.0249V42.2796H34.9526V34.3748C34.9526 33.6627 34.7668 33.1261 34.385 32.7546C34.0032 32.3831 33.4769 32.1973 32.7958 32.1973C32.0321 32.1973 31.4439 32.445 31.0105 32.93C30.5771 33.415 30.3707 34.1168 30.3707 35.0249V42.2796H27.5225H27.5431Z" fill="black"/>
<path d="M54.0648 42.62C52.8471 42.62 51.7635 42.362 50.8348 41.8357C49.906 41.3197 49.1733 40.5767 48.6573 39.6273C48.1414 38.6779 47.873 37.5634 47.873 36.2941V35.9948C47.873 34.7049 48.131 33.5903 48.6367 32.6512C49.1424 31.7122 49.8647 30.9795 50.7935 30.4635C51.7223 29.9475 52.7852 29.6792 53.9926 29.6792C55.2 29.6792 56.2216 29.9372 57.1091 30.4635C57.9966 30.9898 58.6983 31.7122 59.1937 32.6512C59.689 33.5903 59.9367 34.6945 59.9367 35.9432V36.9545H50.7522C50.7832 37.9143 51.1237 38.6779 51.7635 39.2558C52.4034 39.8337 53.198 40.1227 54.1371 40.1227C55.0761 40.1227 55.7469 39.9163 56.1907 39.5138C56.6344 39.1113 56.975 38.6469 57.202 38.1413L59.5549 39.359C59.3278 39.8027 58.9873 40.2775 58.5539 40.7831C58.1204 41.2888 57.5322 41.7119 56.8098 42.0731C56.0875 42.4239 55.169 42.6097 54.0648 42.6097V42.62ZM50.7729 34.8184H57.0369C56.975 34.0134 56.6654 33.3633 56.1081 32.8886C55.5508 32.4139 54.8388 32.1662 53.9616 32.1662C53.0845 32.1662 52.3311 32.4036 51.7842 32.8886C51.2372 33.3633 50.8967 34.0134 50.7729 34.8184Z" fill="black"/>
<path d="M62.6094 42.2794V30.0404H65.406V31.4542H65.8291C66.0149 30.9382 66.3141 30.5667 66.7475 30.3396C67.181 30.1126 67.6866 29.9888 68.2852 29.9888H69.7712V32.5171H68.2336C67.408 32.5171 66.7372 32.7338 66.2316 33.1775C65.7259 33.6213 65.4679 34.2921 65.4679 35.2002V42.2794H62.6197H62.6094Z" fill="black"/>
<path d="M0 67.0464L4.75735 49.7095H9.9378L14.6951 67.0464H11.6199L10.5776 63.0837H4.10721L3.06493 67.0464H0ZM4.80894 60.3593H9.8862L7.55396 51.567H7.13086L4.79862 60.3593H4.80894Z" fill="black"/>
<path d="M21.7436 67.3871C20.7529 67.3871 19.8242 67.1394 18.9676 66.6544C18.1111 66.1694 17.4197 65.4573 16.914 64.5079C16.3981 63.5689 16.1504 62.4337 16.1504 61.1128V60.7206C16.1504 59.3997 16.4084 58.2646 16.914 57.3255C17.43 56.3864 18.1111 55.6743 18.9573 55.179C19.8035 54.694 20.7323 54.4463 21.7436 54.4463C22.5073 54.4463 23.1471 54.5392 23.6734 54.7146C24.1997 54.9004 24.6228 55.1274 24.953 55.406C25.2833 55.6847 25.5309 55.9943 25.7064 56.3245H26.1295V49.689H28.957V67.0259H26.1811V65.4161H25.758C25.4587 65.9114 25.0046 66.3655 24.3958 66.7679C23.7869 67.1704 22.8994 67.3768 21.7436 67.3768V67.3871ZM22.5898 64.9104C23.6115 64.9104 24.468 64.5802 25.1388 63.9094C25.8096 63.2386 26.1501 62.2892 26.1501 61.0509V60.8032C26.1501 59.5442 25.8199 58.5948 25.1491 57.9343C24.4783 57.2739 23.6218 56.9437 22.5898 56.9437C21.5579 56.9437 20.7117 57.2739 20.0306 57.9343C19.3495 58.5948 18.9986 59.5545 18.9986 60.8032V61.0509C18.9986 62.2892 19.3392 63.2386 20.0306 63.9094C20.722 64.5802 21.5682 64.9104 22.5898 64.9104Z" fill="black"/>
<path d="M35.0143 67.0467L31 54.8076H34.0236L37.0473 64.9621H37.4704L40.5147 54.8076H43.5383L39.524 67.0467H35.0143Z" fill="black"/>
<path d="M50.9992 67.387C49.7815 67.387 48.6876 67.1393 47.7175 66.6336C46.7475 66.128 45.9942 65.4159 45.4369 64.4768C44.8796 63.5481 44.6113 62.4232 44.6113 61.123V60.7308C44.6113 59.4305 44.89 58.3057 45.4369 57.3666C45.9942 56.4275 46.7475 55.7052 47.7175 55.2098C48.6876 54.7145 49.7815 54.4668 50.9992 54.4668C52.2169 54.4668 53.3108 54.7145 54.2705 55.2098C55.2302 55.7052 55.9836 56.4275 56.5408 57.3666C57.0981 58.3057 57.3664 59.4305 57.3664 60.7308V61.123C57.3664 62.4232 57.0878 63.5481 56.5408 64.4768C55.9836 65.4056 55.2302 66.128 54.2705 66.6336C53.3108 67.1393 52.2272 67.387 50.9992 67.387ZM50.9992 64.869C52.0415 64.869 52.8877 64.5387 53.5481 63.868C54.2086 63.1972 54.5388 62.2581 54.5388 61.061V60.8134C54.5388 59.606 54.2086 58.6669 53.5481 58.0064C52.8877 57.346 52.0415 57.0054 50.9992 57.0054C49.9569 57.0054 49.1107 57.3357 48.4502 58.0064C47.7898 58.6772 47.4595 59.6163 47.4595 60.8134V61.061C47.4595 62.2684 47.7898 63.2075 48.4502 63.868C49.1107 64.5387 49.9569 64.869 50.9992 64.869Z" fill="black"/>
<path d="M59.5342 60.9785V60.607C59.5342 59.317 59.7922 58.2128 60.2978 57.3047C60.8138 56.3862 61.4949 55.6845 62.3514 55.1995C63.208 54.7145 64.1471 54.4668 65.179 54.4668C66.3348 54.4668 67.212 54.6732 67.8208 55.086C68.4297 55.4988 68.8631 55.9425 69.1418 56.4275H69.5649V54.8177H72.3408V69.3787C72.3408 70.1836 72.1138 70.8234 71.6494 71.2981C71.185 71.7728 70.5555 71.9998 69.7712 71.9998H61.5465V69.5231H68.8012C69.2759 69.5231 69.5236 69.2755 69.5236 68.7801V65.2405H69.1005C68.9147 65.5191 68.667 65.8081 68.3575 66.097C68.0479 66.386 67.6351 66.6336 67.1191 66.8297C66.6031 67.0258 65.9633 67.129 65.1893 67.129C64.1677 67.129 63.2286 66.8813 62.3618 66.3963C61.5052 65.9113 60.8138 65.2095 60.3082 64.2911C59.7922 63.3726 59.5445 62.2684 59.5445 60.9888L59.5342 60.9785ZM65.9736 64.6213C66.9953 64.6213 67.8518 64.2911 68.5226 63.6409C69.1933 62.9908 69.5339 62.0724 69.5339 60.9062V60.6586C69.5339 59.4718 69.2037 58.5534 68.5329 57.9136C67.8621 57.2737 67.0056 56.9435 65.9736 56.9435C64.9417 56.9435 64.0955 57.2634 63.4144 57.9136C62.7333 58.5637 62.3824 59.4718 62.3824 60.6586V60.9062C62.3824 62.0827 62.7229 62.9908 63.4144 63.6409C64.1058 64.2911 64.952 64.6213 65.9736 64.6213Z" fill="black"/>
<path d="M79.5024 67.387C78.6459 67.387 77.8719 67.2322 77.1702 66.933C76.4684 66.6337 75.9318 66.19 75.519 65.6121C75.1166 65.0342 74.9102 64.3221 74.9102 63.4862C74.9102 62.6503 75.1166 61.9692 75.519 61.4016C75.9215 60.8444 76.4787 60.411 77.1908 60.122C77.9029 59.8331 78.7078 59.6886 79.6159 59.6886H83.1555V58.9456C83.1555 58.3058 82.9595 57.7795 82.557 57.377C82.1649 56.9745 81.5457 56.7681 80.6995 56.7681C79.8533 56.7681 79.2547 56.9642 78.8316 57.346C78.4085 57.7279 78.1299 58.2335 78.006 58.8424L75.3849 57.9755C75.5809 57.3357 75.9008 56.7475 76.3343 56.2212C76.7677 55.6949 77.3559 55.2718 78.0783 54.9416C78.8007 54.6113 79.6985 54.4565 80.7511 54.4565C82.3506 54.4565 83.6096 54.859 84.5281 55.6536C85.4465 56.4585 85.9006 57.6143 85.9006 59.1313V63.9403C85.9006 64.4356 86.1276 64.6833 86.592 64.6833H87.6343V67.0362H85.6323C85.0337 67.0362 84.5487 66.8917 84.1669 66.5924C83.785 66.2931 83.5993 65.8907 83.5993 65.3747V65.3231H83.1762C83.073 65.5501 82.9079 65.8391 82.6602 66.1693C82.4125 66.4995 82.041 66.7885 81.5354 67.0258C81.0297 67.2632 80.3486 67.387 79.4921 67.387H79.5024ZM79.9668 65.0651C80.9059 65.0651 81.6798 64.7968 82.2681 64.2602C82.8666 63.7236 83.1555 63.0012 83.1555 62.0931V61.8454H79.7913C79.1825 61.8454 78.6871 61.9795 78.3053 62.2375C77.9235 62.5058 77.7377 62.8877 77.7377 63.4037C77.7377 63.9196 77.9338 64.3015 78.3363 64.6007C78.7387 64.9 79.2754 65.0548 79.9668 65.0548V65.0651Z" fill="black"/>
<path d="M94.4868 67.3871C93.4961 67.3871 92.5673 67.1394 91.7108 66.6544C90.8543 66.1694 90.1629 65.4573 89.6572 64.5079C89.1412 63.5689 88.8936 62.4337 88.8936 61.1128V60.7206C88.8936 59.3997 89.1515 58.2646 89.6572 57.3255C90.1732 56.3864 90.8543 55.6743 91.7005 55.179C92.5467 54.694 93.4755 54.4463 94.4868 54.4463C95.2504 54.4463 95.8903 54.5392 96.4166 54.7146C96.9429 54.9004 97.366 55.1274 97.6962 55.406C98.0264 55.6847 98.2741 55.9943 98.4495 56.3245H98.8726V49.689H101.7V67.0259H98.9242V65.4161H98.5011C98.2019 65.9114 97.7478 66.3655 97.1389 66.7679C96.5301 67.1704 95.6426 67.3768 94.4868 67.3768V67.3871ZM95.3227 64.9104C96.3443 64.9104 97.2008 64.5802 97.8716 63.9094C98.5424 63.2386 98.8829 62.2892 98.8829 61.0509V60.8032C98.8829 59.5442 98.5527 58.5948 97.8819 57.9343C97.2112 57.2739 96.3546 56.9437 95.3227 56.9437C94.2907 56.9437 93.4445 57.2739 92.7634 57.9343C92.0823 58.5948 91.7315 59.5545 91.7315 60.8032V61.0509C91.7315 62.2892 92.072 63.2386 92.7634 63.9094C93.4548 64.5802 94.301 64.9104 95.3227 64.9104Z" fill="black"/>
<path d="M110.854 67.387C109.636 67.387 108.542 67.1393 107.572 66.6336C106.602 66.128 105.849 65.4159 105.291 64.4768C104.734 63.5481 104.466 62.4232 104.466 61.123V60.7308C104.466 59.4305 104.744 58.3057 105.291 57.3666C105.849 56.4275 106.602 55.7052 107.572 55.2098C108.542 54.7145 109.636 54.4668 110.854 54.4668C112.071 54.4668 113.165 54.7145 114.125 55.2098C115.085 55.7052 115.838 56.4275 116.395 57.3666C116.953 58.3057 117.221 59.4305 117.221 60.7308V61.123C117.221 62.4232 116.942 63.5481 116.395 64.4768C115.838 65.4056 115.085 66.128 114.125 66.6336C113.165 67.1393 112.082 67.387 110.854 67.387ZM110.854 64.869C111.896 64.869 112.742 64.5387 113.403 63.868C114.063 63.1972 114.393 62.2581 114.393 61.061V60.8134C114.393 59.606 114.063 58.6669 113.403 58.0064C112.742 57.346 111.896 57.0054 110.854 57.0054C109.811 57.0054 108.965 57.3357 108.305 58.0064C107.644 58.6772 107.314 59.6163 107.314 60.8134V61.061C107.314 62.2684 107.644 63.2075 108.305 63.868C108.965 64.5387 109.811 64.869 110.854 64.869Z" fill="black"/>
<path d="M125.043 67.387C123.454 67.387 122.154 67.0362 121.132 66.3447C120.11 65.6533 119.491 64.6317 119.274 63.3005L121.896 62.6297C122.009 63.2592 122.216 63.7545 122.515 64.1157C122.814 64.4769 123.175 64.7349 123.619 64.8794C124.063 65.0238 124.527 65.1064 125.043 65.1064C125.817 65.1064 126.405 64.9619 126.787 64.6833C127.169 64.4047 127.365 64.0435 127.365 63.6204C127.365 63.1973 127.179 62.8464 126.808 62.6297C126.436 62.413 125.869 62.2375 125.115 62.0827L124.352 61.9589C123.505 61.7938 122.742 61.5668 122.05 61.2778C121.359 60.9889 120.802 60.5967 120.379 60.0911C119.956 59.5854 119.749 58.9456 119.749 58.1716C119.749 56.9848 120.193 56.0664 121.07 55.4266C121.958 54.7868 123.113 54.4565 124.548 54.4565C125.982 54.4565 127.045 54.7661 127.943 55.375C128.83 55.9838 129.408 56.7991 129.677 57.8311L127.055 58.6257C126.921 57.9343 126.632 57.4389 126.189 57.15C125.745 56.861 125.198 56.7165 124.558 56.7165C123.918 56.7165 123.392 56.8301 123.031 57.0674C122.68 57.2944 122.494 57.6247 122.494 58.0581C122.494 58.4915 122.68 58.8114 123.041 59.0281C123.402 59.2448 123.887 59.3996 124.506 59.5028L125.27 59.6473C126.178 59.8124 127.004 60.0291 127.737 60.2871C128.469 60.5451 129.057 60.9269 129.481 61.4223C129.914 61.9176 130.12 62.5884 130.12 63.4243C130.12 64.6936 129.666 65.674 128.748 66.3551C127.829 67.0362 126.601 67.387 125.043 67.387Z" fill="black"/>
</g>
<defs>
<clipPath id="clip0_270_29">
<rect width="130.12" height="72" fill="white"/>
</clipPath>
</defs>
</svg>
